<svg width="271" height="43" viewBox="0 0 271 43" fill="none" xmlns="http://www.w3.org/2000/svg">
<path d="M65.4315 11.4284C62.6883 8.68519 59.4316 6.50909 55.8475 5.02449C52.2633 3.53989 48.4219 2.77579 44.5424 2.77579C40.6629 2.77579 36.8215 3.53989 33.2373 5.02449C29.6532 6.50909 26.3965 8.68519 23.6533 11.4284L44.5424 32.3174L65.4315 11.4284Z" fill="#FFD200"/>
<path d="M44.5686 32.3475C47.3118 35.0907 50.5684 37.2667 54.1526 38.7513C57.7367 40.2359 61.5782 41 65.4577 41C69.337 41 73.179 40.2359 76.763 38.7513C80.347 37.2667 83.604 35.0907 86.347 32.3475L65.4577 11.4584L44.5686 32.3475Z" fill="#06E07F"/>
<path d="M44.517 32.3429C41.7738 35.0861 38.5171 37.2621 34.933 38.7467C31.3488 40.2313 27.5074 40.9954 23.6279 40.9954C19.7484 40.9954 15.907 40.2313 12.3228 38.7467C8.7387 37.2621 5.482 35.0861 2.7388 32.3429L23.6279 11.4538L44.517 32.3429Z" fill="#E3073C"/>
<path d="M65.4831 11.433C68.226 8.68979 71.483 6.51379 75.067 5.02919C78.651 3.54459 82.493 2.78049 86.372 2.78049C90.252 2.78049 94.093 3.54459 97.677 5.02919C101.261 6.51379 104.518 8.68979 107.261 11.433L86.372 32.3221L65.4831 11.433Z" fill="#1F84EF"/>
<path d="M131.03 23.667H126.959V21.5293H131.03C131.739 21.5293 132.312 21.4147 132.749 21.1855C133.186 20.9564 133.505 20.6413 133.705 20.2402C133.913 19.832 134.017 19.3665 134.017 18.8438C134.017 18.3496 133.913 17.8877 133.705 17.458C133.505 17.0212 133.186 16.6702 132.749 16.4053C132.312 16.1403 131.739 16.0078 131.03 16.0078H127.786V29.5H125.09V13.8594H131.03C132.241 13.8594 133.268 14.0742 134.113 14.5039C134.965 14.9264 135.614 15.5137 136.058 16.2656C136.502 17.0104 136.724 17.8626 136.724 18.8223C136.724 19.832 136.502 20.6986 136.058 21.4219C135.614 22.1452 134.965 22.7002 134.113 23.0869C133.268 23.4736 132.241 23.667 131.03 23.667ZM141.482 20.0898V29.5H138.894V17.877H141.364L141.482 20.0898ZM145.038 17.8018L145.017 20.208C144.859 20.1794 144.687 20.1579 144.501 20.1436C144.322 20.1292 144.143 20.1221 143.964 20.1221C143.52 20.1221 143.13 20.1865 142.793 20.3154C142.456 20.4372 142.174 20.6162 141.944 20.8525C141.722 21.0817 141.55 21.361 141.429 21.6904C141.307 22.0199 141.235 22.3887 141.214 22.7969L140.623 22.8398C140.623 22.1094 140.695 21.4326 140.838 20.8096C140.981 20.1865 141.196 19.6387 141.482 19.166C141.776 18.6934 142.141 18.3245 142.578 18.0596C143.022 17.7946 143.534 17.6621 144.114 17.6621C144.272 17.6621 144.44 17.6764 144.619 17.7051C144.805 17.7337 144.945 17.766 145.038 17.8018ZM149.432 17.877V29.5H146.832V17.877H149.432ZM146.66 14.8262C146.66 14.4323 146.789 14.1064 147.047 13.8486C147.312 13.5837 147.677 13.4512 148.143 13.4512C148.601 13.4512 148.963 13.5837 149.228 13.8486C149.493 14.1064 149.625 14.4323 149.625 14.8262C149.625 15.2129 149.493 15.5352 149.228 15.793C148.963 16.0508 148.601 16.1797 148.143 16.1797C147.677 16.1797 147.312 16.0508 147.047 15.793C146.789 15.5352 146.66 15.2129 146.66 14.8262ZM154.856 20.2402V29.5H152.268V17.877H154.706L154.856 20.2402ZM154.438 23.2588L153.557 23.248C153.557 22.446 153.657 21.7048 153.857 21.0244C154.058 20.3441 154.352 19.7533 154.738 19.252C155.125 18.7435 155.605 18.3532 156.178 18.0811C156.758 17.8018 157.427 17.6621 158.187 17.6621C158.716 17.6621 159.2 17.7409 159.637 17.8984C160.081 18.0488 160.464 18.2887 160.786 18.6182C161.116 18.9476 161.366 19.3701 161.538 19.8857C161.717 20.4014 161.807 21.0244 161.807 21.7549V29.5H159.218V21.9805C159.218 21.4147 159.132 20.9707 158.96 20.6484C158.795 20.3262 158.555 20.097 158.24 19.9609C157.932 19.8177 157.563 19.7461 157.134 19.7461C156.647 19.7461 156.231 19.8392 155.888 20.0254C155.551 20.2116 155.275 20.4658 155.061 20.7881C154.846 21.1104 154.688 21.4827 154.588 21.9053C154.488 22.3278 154.438 22.779 154.438 23.2588ZM161.646 22.5713L160.432 22.8398C160.432 22.138 160.528 21.4756 160.722 20.8525C160.922 20.2223 161.212 19.6709 161.592 19.1982C161.979 18.7184 162.455 18.3424 163.021 18.0703C163.586 17.7982 164.234 17.6621 164.965 17.6621C165.559 17.6621 166.089 17.7445 166.555 17.9092C167.027 18.0667 167.428 18.3174 167.758 18.6611C168.087 19.0049 168.338 19.4525 168.51 20.0039C168.682 20.5482 168.768 21.207 168.768 21.9805V29.5H166.168V21.9697C166.168 21.3825 166.082 20.9277 165.91 20.6055C165.745 20.2832 165.509 20.0612 165.201 19.9395C164.893 19.8105 164.524 19.7461 164.095 19.7461C163.694 19.7461 163.339 19.8213 163.031 19.9717C162.73 20.1149 162.476 20.319 162.269 20.584C162.061 20.8418 161.903 21.139 161.796 21.4756C161.696 21.8122 161.646 22.1774 161.646 22.5713ZM176.556 29.7148C175.696 29.7148 174.919 29.5752 174.225 29.2959C173.537 29.0094 172.95 28.612 172.463 28.1035C171.983 27.5951 171.614 26.9971 171.356 26.3096C171.099 25.6221 170.97 24.8809 170.97 24.0859V23.6562C170.97 22.7467 171.102 21.9232 171.367 21.1855C171.632 20.4479 172.001 19.8177 172.474 19.2949C172.946 18.765 173.505 18.3604 174.149 18.0811C174.794 17.8018 175.492 17.6621 176.244 17.6621C177.075 17.6621 177.802 17.8018 178.425 18.0811C179.048 18.3604 179.563 18.7542 179.972 19.2627C180.387 19.764 180.695 20.362 180.896 21.0566C181.103 21.7513 181.207 22.5176 181.207 23.3555V24.4619H172.227V22.6035H178.65V22.3994C178.636 21.9339 178.543 21.4971 178.371 21.0889C178.206 20.6807 177.952 20.3512 177.608 20.1006C177.265 19.8499 176.806 19.7246 176.233 19.7246C175.804 19.7246 175.421 19.8177 175.084 20.0039C174.755 20.1829 174.479 20.4443 174.257 20.7881C174.035 21.1318 173.863 21.5472 173.741 22.0342C173.627 22.514 173.569 23.0547 173.569 23.6562V24.0859C173.569 24.5944 173.637 25.0671 173.773 25.5039C173.917 25.9336 174.124 26.3096 174.396 26.6318C174.669 26.9541 174.998 27.2083 175.385 27.3945C175.771 27.5736 176.212 27.6631 176.706 27.6631C177.329 27.6631 177.884 27.5378 178.371 27.2871C178.858 27.0365 179.281 26.682 179.639 26.2236L181.003 27.5449C180.752 27.9102 180.426 28.2611 180.025 28.5977C179.624 28.9271 179.134 29.1956 178.554 29.4033C177.981 29.611 177.315 29.7148 176.556 29.7148ZM194.903 23.667H190.832V21.5293H194.903C195.612 21.5293 196.185 21.4147 196.622 21.1855C197.059 20.9564 197.378 20.6413 197.578 20.2402C197.786 19.832 197.89 19.3665 197.89 18.8438C197.89 18.3496 197.786 17.8877 197.578 17.458C197.378 17.0212 197.059 16.6702 196.622 16.4053C196.185 16.1403 195.612 16.0078 194.903 16.0078H191.659V29.5H188.963V13.8594H194.903C196.114 13.8594 197.141 14.0742 197.986 14.5039C198.839 14.9264 199.487 15.5137 199.931 16.2656C200.375 17.0104 200.597 17.8626 200.597 18.8223C200.597 19.832 200.375 20.6986 199.931 21.4219C199.487 22.1452 198.839 22.7002 197.986 23.0869C197.141 23.4736 196.114 23.667 194.903 23.667ZM205.355 20.0898V29.5H202.767V17.877H205.237L205.355 20.0898ZM208.911 17.8018L208.89 20.208C208.732 20.1794 208.56 20.1579 208.374 20.1436C208.195 20.1292 208.016 20.1221 207.837 20.1221C207.393 20.1221 207.003 20.1865 206.666 20.3154C206.329 20.4372 206.047 20.6162 205.817 20.8525C205.595 21.0817 205.424 21.361 205.302 21.6904C205.18 22.0199 205.108 22.3887 205.087 22.7969L204.496 22.8398C204.496 22.1094 204.568 21.4326 204.711 20.8096C204.854 20.1865 205.069 19.6387 205.355 19.166C205.649 18.6934 206.014 18.3245 206.451 18.0596C206.895 17.7946 207.407 17.6621 207.987 17.6621C208.145 17.6621 208.313 17.6764 208.492 17.7051C208.678 17.7337 208.818 17.766 208.911 17.8018ZM209.76 23.8174V23.5703C209.76 22.7324 209.882 21.9554 210.125 21.2393C210.368 20.516 210.719 19.8893 211.178 19.3594C211.643 18.8223 212.209 18.4069 212.875 18.1133C213.548 17.8125 214.307 17.6621 215.152 17.6621C216.005 17.6621 216.764 17.8125 217.43 18.1133C218.103 18.4069 218.672 18.8223 219.138 19.3594C219.603 19.8893 219.958 20.516 220.201 21.2393C220.445 21.9554 220.566 22.7324 220.566 23.5703V23.8174C220.566 24.6553 220.445 25.4323 220.201 26.1484C219.958 26.8646 219.603 27.4912 219.138 28.0283C218.672 28.5583 218.106 28.9736 217.44 29.2744C216.774 29.568 216.019 29.7148 215.174 29.7148C214.322 29.7148 213.559 29.568 212.886 29.2744C212.22 28.9736 211.654 28.5583 211.188 28.0283C210.723 27.4912 210.368 26.8646 210.125 26.1484C209.882 25.4323 209.76 24.6553 209.76 23.8174ZM212.349 23.5703V23.8174C212.349 24.3402 212.402 24.8343 212.51 25.2998C212.617 25.7653 212.785 26.1735 213.015 26.5244C213.244 26.8753 213.537 27.151 213.896 27.3516C214.254 27.5521 214.68 27.6523 215.174 27.6523C215.654 27.6523 216.069 27.5521 216.42 27.3516C216.778 27.151 217.072 26.8753 217.301 26.5244C217.53 26.1735 217.698 25.7653 217.806 25.2998C217.92 24.8343 217.978 24.3402 217.978 23.8174V23.5703C217.978 23.0547 217.92 22.5677 217.806 22.1094C217.698 21.6439 217.526 21.2321 217.29 20.874C217.061 20.516 216.767 20.2367 216.409 20.0361C216.058 19.8285 215.639 19.7246 215.152 19.7246C214.665 19.7246 214.243 19.8285 213.885 20.0361C213.534 20.2367 213.244 20.516 213.015 20.874C212.785 21.2321 212.617 21.6439 212.51 22.1094C212.402 22.5677 212.349 23.0547 212.349 23.5703ZM225.325 20.2402V29.5H222.736V17.877H225.175L225.325 20.2402ZM224.906 23.2588L224.025 23.248C224.025 22.446 224.126 21.7048 224.326 21.0244C224.527 20.3441 224.82 19.7533 225.207 19.252C225.594 18.7435 226.074 18.3532 226.646 18.0811C227.227 17.8018 227.896 17.6621 228.655 17.6621C229.185 17.6621 229.669 17.7409 230.105 17.8984C230.549 18.0488 230.933 18.2887 231.255 18.6182C231.584 18.9476 231.835 19.3701 232.007 19.8857C232.186 20.4014 232.275 21.0244 232.275 21.7549V29.5H229.687V21.9805C229.687 21.4147 229.601 20.9707 229.429 20.6484C229.264 20.3262 229.024 20.097 228.709 19.9609C228.401 19.8177 228.032 19.7461 227.603 19.7461C227.116 19.7461 226.7 19.8392 226.356 20.0254C226.02 20.2116 225.744 20.4658 225.529 20.7881C225.314 21.1104 225.157 21.4827 225.057 21.9053C224.956 22.3278 224.906 22.779 224.906 23.2588ZM232.114 22.5713L230.9 22.8398C230.9 22.138 230.997 21.4756 231.19 20.8525C231.391 20.2223 231.681 19.6709 232.061 19.1982C232.447 18.7184 232.924 18.3424 233.489 18.0703C234.055 17.7982 234.703 17.6621 235.434 17.6621C236.028 17.6621 236.558 17.7445 237.023 17.9092C237.496 18.0667 237.897 18.3174 238.227 18.6611C238.556 19.0049 238.807 19.4525 238.979 20.0039C239.15 20.5482 239.236 21.207 239.236 21.9805V29.5H236.637V21.9697C236.637 21.3825 236.551 20.9277 236.379 20.6055C236.214 20.2832 235.978 20.0612 235.67 19.9395C235.362 19.8105 234.993 19.7461 234.563 19.7461C234.162 19.7461 233.808 19.8213 233.5 19.9717C233.199 20.1149 232.945 20.319 232.737 20.584C232.53 20.8418 232.372 21.139 232.265 21.4756C232.164 21.8122 232.114 22.1774 232.114 22.5713ZM244.5 20.1113V33.9688H241.911V17.877H244.296L244.5 20.1113ZM252.073 23.5811V23.8066C252.073 24.6517 251.973 25.4359 251.772 26.1592C251.579 26.8753 251.289 27.502 250.902 28.0391C250.523 28.569 250.054 28.9808 249.495 29.2744C248.937 29.568 248.292 29.7148 247.562 29.7148C246.838 29.7148 246.204 29.5824 245.66 29.3174C245.123 29.0452 244.668 28.6621 244.296 28.168C243.924 27.6738 243.623 27.0938 243.394 26.4277C243.172 25.7546 243.014 25.0169 242.921 24.2148V23.3447C243.014 22.4925 243.172 21.7191 243.394 21.0244C243.623 20.3298 243.924 19.7318 244.296 19.2305C244.668 18.7292 245.123 18.3424 245.66 18.0703C246.197 17.7982 246.824 17.6621 247.54 17.6621C248.271 17.6621 248.919 17.8053 249.484 18.0918C250.05 18.3711 250.526 18.7721 250.913 19.2949C251.3 19.8105 251.59 20.4336 251.783 21.1641C251.977 21.8874 252.073 22.693 252.073 23.5811ZM249.484 23.8066V23.5811C249.484 23.0439 249.434 22.5462 249.334 22.0879C249.234 21.6224 249.076 21.2142 248.861 20.8633C248.646 20.5124 248.371 20.2402 248.034 20.0469C247.705 19.8464 247.307 19.7461 246.842 19.7461C246.383 19.7461 245.99 19.8249 245.66 19.9824C245.331 20.1328 245.055 20.3441 244.833 20.6162C244.611 20.8883 244.439 21.207 244.317 21.5723C244.196 21.9303 244.11 22.3206 244.06 22.7432V24.8271C244.146 25.3428 244.292 25.8154 244.5 26.2451C244.708 26.6748 245.001 27.0186 245.381 27.2764C245.768 27.527 246.262 27.6523 246.863 27.6523C247.329 27.6523 247.726 27.5521 248.056 27.3516C248.385 27.151 248.654 26.8753 248.861 26.5244C249.076 26.1663 249.234 25.7546 249.334 25.2891C249.434 24.8236 249.484 24.3294 249.484 23.8066ZM259.604 17.877V19.7676H253.051V17.877H259.604ZM254.941 15.0303H257.53V26.2881C257.53 26.6462 257.58 26.9219 257.681 27.1152C257.788 27.3014 257.935 27.4268 258.121 27.4912C258.307 27.5557 258.526 27.5879 258.776 27.5879C258.955 27.5879 259.127 27.5771 259.292 27.5557C259.457 27.5342 259.589 27.5127 259.689 27.4912L259.7 29.4678C259.485 29.5322 259.235 29.5895 258.948 29.6396C258.669 29.6898 258.347 29.7148 257.981 29.7148C257.387 29.7148 256.861 29.611 256.402 29.4033C255.944 29.1885 255.586 28.8411 255.328 28.3613C255.07 27.8815 254.941 27.2441 254.941 26.4492V15.0303ZM268.122 26.3525C268.122 26.0947 268.058 25.862 267.929 25.6543C267.8 25.4395 267.553 25.2461 267.188 25.0742C266.829 24.9023 266.299 24.7448 265.598 24.6016C264.982 24.4655 264.416 24.3044 263.9 24.1182C263.392 23.9248 262.955 23.6921 262.59 23.4199C262.225 23.1478 261.942 22.8255 261.741 22.4531C261.541 22.0807 261.44 21.651 261.44 21.1641C261.44 20.6914 261.544 20.2438 261.752 19.8213C261.96 19.3988 262.257 19.0264 262.644 18.7041C263.03 18.3818 263.499 18.1276 264.051 17.9414C264.609 17.7552 265.232 17.6621 265.92 17.6621C266.894 17.6621 267.728 17.8268 268.423 18.1562C269.125 18.4785 269.662 18.9189 270.034 19.4775C270.407 20.029 270.593 20.652 270.593 21.3467H268.004C268.004 21.0387 267.925 20.7523 267.768 20.4873C267.617 20.2152 267.388 19.9967 267.08 19.832C266.772 19.6602 266.385 19.5742 265.92 19.5742C265.476 19.5742 265.107 19.6458 264.813 19.7891C264.527 19.9251 264.312 20.1042 264.169 20.3262C264.033 20.5482 263.965 20.7917 263.965 21.0566C263.965 21.25 264.001 21.4255 264.072 21.583C264.151 21.7334 264.28 21.873 264.459 22.002C264.638 22.1237 264.882 22.2383 265.189 22.3457C265.505 22.4531 265.898 22.557 266.371 22.6572C267.259 22.8434 268.022 23.0833 268.659 23.377C269.304 23.6634 269.798 24.0358 270.142 24.4941C270.485 24.9453 270.657 25.5182 270.657 26.2129C270.657 26.7285 270.546 27.2012 270.324 27.6309C270.109 28.0534 269.794 28.4222 269.379 28.7373C268.964 29.0452 268.466 29.2852 267.886 29.457C267.313 29.6289 266.668 29.7148 265.952 29.7148C264.899 29.7148 264.008 29.5286 263.277 29.1562C262.547 28.7767 261.992 28.2933 261.612 27.7061C261.24 27.1117 261.054 26.4958 261.054 25.8584H263.557C263.585 26.3382 263.718 26.7214 263.954 27.0078C264.198 27.2871 264.498 27.4912 264.856 27.6201C265.222 27.7419 265.598 27.8027 265.984 27.8027C266.45 27.8027 266.84 27.7419 267.155 27.6201C267.47 27.4912 267.71 27.3193 267.875 27.1045C268.04 26.8825 268.122 26.6318 268.122 26.3525Z" fill="white"/>
</svg>
