<svg width="25" height="24" viewBox="0 0 25 24" fill="none" xmlns="http://www.w3.org/2000/svg">
<path d="M13.5276 2.00073C14.653 2.00259 15.2233 2.00855 15.7161 2.02322L15.9102 2.02956C16.1344 2.03753 16.3556 2.04753 16.6223 2.06003C17.6864 2.1092 18.4123 2.27753 19.0498 2.52503C19.7089 2.7792 20.2656 3.12253 20.8214 3.67837C21.3764 4.2342 21.7198 4.79253 21.9748 5.45003C22.2214 6.0867 22.3898 6.81337 22.4398 7.87753C22.4517 8.1442 22.4613 8.3654 22.4692 8.58964L22.4755 8.78373C22.4901 9.27647 22.4968 9.84686 22.4989 10.9723L22.4997 11.7179C22.4998 11.809 22.4998 11.903 22.4998 12L22.4997 12.2821L22.4991 13.0278C22.4972 14.1532 22.4913 14.7236 22.4766 15.2163L22.4702 15.4104C22.4623 15.6347 22.4523 15.8559 22.4398 16.1225C22.3906 17.1867 22.2214 17.9125 21.9748 18.55C21.7206 19.2092 21.3764 19.7659 20.8214 20.3217C20.2656 20.8767 19.7064 21.22 19.0498 21.475C18.4123 21.7217 17.6864 21.89 16.6223 21.94C16.3556 21.9519 16.1344 21.9616 15.9102 21.9694L15.7161 21.9757C15.2233 21.9904 14.653 21.997 13.5276 21.9992L12.7819 22C12.6908 22 12.5968 22 12.4998 22H12.2177L11.472 21.9993C10.3466 21.9975 9.77623 21.9915 9.28348 21.9768L9.0894 21.9705C8.86515 21.9625 8.64395 21.9525 8.37729 21.94C7.31312 21.8909 6.58812 21.7217 5.94979 21.475C5.29145 21.2209 4.73395 20.8767 4.17812 20.3217C3.62229 19.7659 3.27979 19.2067 3.02479 18.55C2.77729 17.9125 2.60979 17.1867 2.55979 16.1225C2.54791 15.8559 2.53822 15.6347 2.53037 15.4104L2.52408 15.2163C2.50945 14.7236 2.50278 14.1532 2.50062 13.0278L2.50049 10.9723C2.50235 9.84686 2.5083 9.27647 2.52297 8.78373L2.52932 8.58964C2.53729 8.3654 2.54729 8.1442 2.55979 7.87753C2.60895 6.81253 2.77729 6.08753 3.02479 5.45003C3.27895 4.7917 3.62229 4.2342 4.17812 3.67837C4.73395 3.12253 5.29229 2.78003 5.94979 2.52503C6.58729 2.27753 7.31229 2.11003 8.37729 2.06003C8.64395 2.04816 8.86515 2.03847 9.0894 2.03062L9.28348 2.02433C9.77623 2.00969 10.3466 2.00302 11.472 2.00086L13.5276 2.00073ZM12.4998 7.00003C9.73689 7.00003 7.49979 9.23956 7.49979 12C7.49979 14.7629 9.73932 17 12.4998 17C15.2627 17 17.4998 14.7605 17.4998 12C17.4998 9.23713 15.2602 7.00003 12.4998 7.00003ZM12.4998 9.00003C14.1567 9.00003 15.4998 10.3427 15.4998 12C15.4998 13.6569 14.1571 15 12.4998 15C10.8429 15 9.49979 13.6574 9.49979 12C9.49979 10.3431 10.8424 9.00003 12.4998 9.00003ZM17.7498 5.50003C17.0605 5.50003 16.4998 6.05994 16.4998 6.74918C16.4998 7.43843 17.0597 7.9992 17.7498 7.9992C18.439 7.9992 18.9998 7.4393 18.9998 6.74918C18.9998 6.05994 18.4381 5.49917 17.7498 5.50003Z" fill="white"/>
</svg>
