<svg width="25" height="24" viewBox="0 0 25 24" fill="none" xmlns="http://www.w3.org/2000/svg">
<path d="M7.43999 4.99993C7.43962 5.81424 6.94559 6.54702 6.19085 6.85273C5.43611 7.15845 4.57138 6.97605 4.00441 6.39155C3.43744 5.80704 3.28146 4.93715 3.61001 4.19207C3.93857 3.44699 4.68605 2.9755 5.49999 2.99993C6.58106 3.03238 7.44048 3.91837 7.43999 4.99993ZM7.49999 8.47993H3.49999V20.9999H7.49999V8.47993ZM13.82 8.47993H9.83999V20.9999H13.78V14.4299C13.78 10.7699 18.55 10.4299 18.55 14.4299V20.9999H22.5V13.0699C22.5 6.89993 15.44 7.12993 13.78 10.1599L13.82 8.47993Z" fill="white"/>
</svg>
