<svg width="25" height="24" viewBox="0 0 25 24" fill="none" xmlns="http://www.w3.org/2000/svg">
<g clip-path="url(#clip0_6_54)">
<path d="M22.7121 5.65605C21.9487 5.99375 21.1391 6.21555 20.3102 6.31411C21.1835 5.79132 21.837 4.9689 22.1489 4.00005C21.3283 4.48761 20.4301 4.83077 19.4934 5.01461C18.7027 4.17106 17.5976 3.69303 16.4414 3.69434C14.1322 3.69434 12.2593 5.56661 12.2593 7.87683C12.2593 8.20458 12.2969 8.52242 12.3672 8.82909C8.89005 8.65404 5.80965 6.99005 3.74636 4.45941C3.37487 5.09767 3.17963 5.82318 3.18062 6.56167C3.18062 8.01259 3.91918 9.29324 5.04107 10.043C4.37695 10.022 3.72746 9.84264 3.14676 9.51973C3.14612 9.5373 3.14612 9.55487 3.14612 9.57148C3.14612 11.5984 4.58777 13.2892 6.50157 13.6731C6.14238 13.7703 5.7719 13.8194 5.3998 13.8191C5.12955 13.8191 4.86729 13.7942 4.61237 13.7453C5.14489 15.4065 6.68844 16.6159 8.51918 16.6491C7.03771 17.8118 5.20827 18.4426 3.32501 18.4399C2.9917 18.4402 2.65867 18.4205 2.3277 18.3811C4.23962 19.6102 6.4651 20.2625 8.738 20.2601C16.4312 20.2601 20.6376 13.8875 20.6376 8.36111C20.6376 8.1803 20.6332 7.99886 20.6252 7.81997C21.4439 7.22845 22.1506 6.49567 22.7121 5.65605Z" fill="white"/>
</g>
<defs>
<clipPath id="clip0_6_54">
<rect width="24" height="24" fill="white" transform="translate(0.499573)"/>
</clipPath>
</defs>
</svg>
