<svg width="21" height="16" viewBox="0 0 21 16" fill="none" xmlns="http://www.w3.org/2000/svg">
<path d="M10.7444 0.000427246C11.2785 0.00336725 12.6148 0.0162873 14.0346 0.0731573L14.538 0.0951071C15.9675 0.162787 17.3958 0.278407 18.1042 0.475927C19.0491 0.741377 19.7918 1.51593 20.0428 2.49775C20.4425 4.05684 20.4925 7.09983 20.4987 7.83623L20.4996 7.98883V7.99953C20.4996 7.99953 20.4996 8.00323 20.4996 8.01033L20.4987 8.16293C20.4925 8.89933 20.4425 11.9423 20.0428 13.5014C19.7883 14.4868 19.0456 15.2614 18.1042 15.5232C17.3958 15.7207 15.9675 15.8363 14.538 15.904L14.0346 15.9259C12.6148 15.9828 11.2785 15.9957 10.7444 15.9987L10.51 15.9995H10.4996C10.4996 15.9995 10.4961 15.9995 10.4892 15.9995L10.255 15.9987C9.12456 15.9925 4.39818 15.9414 2.89497 15.5232C1.95006 15.2577 1.20738 14.4832 0.956328 13.5014C0.556658 11.9423 0.506698 8.89933 0.500458 8.16293V7.83623C0.506698 7.09983 0.556658 4.05684 0.956328 2.49775C1.21086 1.51229 1.95354 0.737747 2.89497 0.475927C4.39818 0.0576574 9.12456 0.00664725 10.255 0.000427246H10.7444ZM8.49957 4.49957V11.4995L14.4996 7.99953L8.49957 4.49957Z" fill="white"/>
</svg>
